# AST/ASF file generated using VICON BodyLanguage
# -----------------------------------------------
:version 1.10
:name VICON
:units
  mass 1.0
  length 0.45
  angle deg
:documentation
   .ast/.asf automatically generated from VICON data using
   VICON BodyBuilder and BodyLanguage model FoxedUp or BRILLIANT.MOD
:root
   order TX TY TZ RX RY RZ
   axis XYZ
   position 0 0 0  
   orientation 0 0 0 
:bonedata
  begin
     id 1 
     name lhipjoint
     direction 0.711131 -0.61297 0.344326 
     length 2.29162 
     axis 0 0 0  XYZ
  end
  begin
     id 2 
     name lfemur
     direction 0.34202 -0.939693 0  
     length 6.71424  
     axis 0 0 20  XYZ
    dof rx ry rz
    limits (-160.0 20.0)
           (-70.0 70.0)
           (-60.0 70.0)
  end
  begin
     id 3 
     name ltibia
     direction 0.34202 -0.939693 0   
     length 6.7087   
     axis 0 0 20   XYZ
    dof rx
    limits (-10.0 170.0)
  end
  begin
     id 4 
     name lfoot
     direction 0.0230374 -0.0632947 0.997729   
     length 1.56743   
     axis -90 7.62852e-016 20   XYZ
    dof rx rz
    limits (-45.0 90.0)
           (-70.0 20.0)
  end
  begin
     id 5 
     name ltoes
     direction 1.53585e-011 -4.21885e-011 1   
     length 0.802914   
     axis -90 7.62852e-016 20   XYZ
    dof rx
    limits (-90.0 20.0)
  end
  begin
     id 6 
     name rhipjoint
     direction -0.733192 -0.592884 0.333043   
     length 2.36925  
     axis 0 0 0  XYZ 
  end
  begin
     id 7 
     name rfemur
     direction -0.34202 -0.939693 0   
     length 6.67027   
     axis 0 0 -20   XYZ
    dof rx ry rz
    limits (-160.0 20.0)
           (-70.0 70.0)
           (-70.0 60.0)
  end
  begin
     id 8 
     name rtibia
     direction -0.34202 -0.939693 0   
     length 6.6862   
     axis 0 0 -20   XYZ
    dof rx
    limits (-10.0 170.0)
 end
 begin
     id 9 
     name rfoot
     direction -0.0949739 -0.260939 0.960672   
     length 1.67698  
     axis -90 -7.62852e-016 -20   XYZ
    dof rx rz
    limits (-45.0 90.0)
           (-20.0 70.0)
  end
  begin
     id 10 
     name rtoes
     direction -1.5353e-011 -4.21868e-011 1   
     length 0.846298   
     axis -90 -7.62852e-016 -20   XYZ
    dof rx
    limits (-90.0 20.0)
  end
  begin
     id 11 
     name lowerback
     direction -0.0206828 0.999785 -0.00109866   
     length 2.04382   
     axis 0 0 0   XYZ
    dof rx ry rz
    limits (-20.0 45.0)
           (-30.0 30.0)
           (-30.0 30.0)
  end
  begin
     id 12 
     name upperback
     direction -0.0105003 0.999727 -0.0208904   
     length 2.04538   
     axis 0 0 0   XYZ
    dof rx ry rz
    limits (-20.0 45.0)
           (-30.0 30.0)
           (-30.0 30.0)
  end
  begin
     id 13 
     name thorax
     direction -0.000416255 0.999808 -0.0196023   
     length 2.0399   
     axis 0 0 0   XYZ
    dof rx ry rz
    limits (-20.0 45.0)
           (-30.0 30.0)
           (-30.0 30.0)
  end
  begin
     id 14 
     name lowerneck
     direction 0.0627861 0.989205 0.13241   
     length 1.46207   
     axis 0 0 0   XYZ
    dof rx ry rz
    limits (-20.0 45.0)
           (-30.0 30.0)
           (-30.0 30.0)
  end
  begin
     id 15 
     name upperneck
     direction 0.00627179 0.994526 0.104303   
     length 1.41419   
     axis 0 0 0   XYZ
    dof rx ry rz
    limits (-20.0 45.0)
           (-30.0 30.0)
           (-30.0 30.0)
  end
  begin
     id 16
     name head
     direction -0.00443838 0.999688 0.0245968  
     length 1.50718  
     axis 0 0 0   XYZ
    dof rx ry rz
    limits (-20.0 45.0)
           (-30.0 30.0)
           (-30.0 30.0)
  end
  begin
     id 17 
     name lclavicle
     direction 0.758742 0.650995 -0.0227258  
     length 2.86888  
     axis 0 0 0   XYZ
    dof ry rz
    limits (-20.0 10.0)
           (0.0 20.0)
  end
  begin
     id 18 
     name lhumerus
     direction 1 -4.48962e-011 1.06664e-027   
     length 4.65776   
     axis -180 -30 -90   XYZ
    dof rx ry rz
    limits (-60.0 90.0)
           (-90.0 90.0)
           (-90.0 90.0)
  end
  begin
     id 19
     name lradius
     direction 1 -4.48968e-011 1.40404e-026   
     length 3.55539   
     axis -180 -30 -90   XYZ
    dof rx
    limits (-10.0 170.0)
  end
  begin
     id 20
     name lwrist
     direction 1 -4.48976e-011 3.32647e-026   
     length 1.77769   
     axis -2.20186e-014 90 90   XYZ
    dof ry
    limits (-180.0 0.0)
 end
  begin
     id 21 
     name lhand
     direction 1 -4.48982e-011 6.65293e-026   
     length 0.707264   
     axis -4.24514e-014 90 90   XYZ
    dof rx rz
    limits (-90.0 90.0)
           (-45.0 45.0)
  end
  begin
     id 22 
     name lfingers
     direction 1 -4.48966e-011 1.33059e-025   
     length 0.570215   
     axis -8.49028e-014 90 90   XYZ
    dof rx
    limits (0.0 90.0)
  end
  begin
     id 23
     name lthumb
     direction 0.707107 -6.3493e-011 0.707107   
     length 0.818718   
     axis -90 45 2.85299e-015   XYZ
    dof rx rz
    limits (-45.0 45.0)
           (-45.0 45.0)
  end
  begin
     id 24 
     name rclavicle
     direction -0.870343 0.482028 -0.100759   
     length 3.2251  
     axis 0 0 0   XYZ 
    dof ry rz
    limits (-10.0 20.0)
           (-20.0 0.0)
  end
  begin
     id 25 
     name rhumerus
     direction -1 -4.48974e-011 -9.45849e-028  
     length 4.71925   
     axis -180 30 90   XYZ
    dof rx ry rz
    limits (-90.0 60.0)
           (-90.0 90.0)
           (-90.0 90.0)
  end
  begin
     id 26 
     name rradius
     direction -1 -4.48965e-011 1.17607e-026   
     length 3.5699   
     axis -180 30 90   XYZ
    dof rx
    limits (-10.0 170.0)
  end
  begin
     id 27 
     name rwrist
     direction -1 -4.48968e-011 3.32647e-026   
     length 1.78495   
     axis -2.20186e-014 -90 -90   XYZ
    dof ry
    limits (-180.0 0.0)
  end
  begin
     id 28
     name rhand
     direction -1 -4.48995e-011 6.65293e-026   
     length 0.507757   
     axis -4.24514e-014 -90 -90   XYZ
    dof rx rz
    limits (-90.0 90.0)
           (-45.0 45.0)
  end
  begin
     id 29
     name rfingers
     direction -1 -4.48864e-011 1.33059e-025   
     length 0.409367   
     axis -8.49028e-014 -90 -90   XYZ
    dof rx
    limits (0.0 90.0)
  end
  begin
     id 30
     name rthumb
     direction -0.707107 -6.3494e-011 0.707107   
     length 0.587771   
     axis -90 -45 -2.85299e-015   XYZ
    dof rx rz
    limits (-45.0 45.0)
           (-45.0 45.0)
  end
:hierarchy
  begin
    root lhipjoint rhipjoint lowerback
    lhipjoint lfemur
    lfemur ltibia
    ltibia lfoot
    lfoot ltoes
    rhipjoint rfemur
    rfemur rtibia
    rtibia rfoot
    rfoot rtoes
    lowerback upperback
    upperback thorax
    thorax lowerneck lclavicle rclavicle
    lowerneck upperneck
    upperneck head
    lclavicle lhumerus
    lhumerus lradius
    lradius lwrist
    lwrist lhand lthumb
    lhand lfingers
    rclavicle rhumerus
    rhumerus rradius
    rradius rwrist
    rwrist rhand rthumb
    rhand rfingers
  end

#!OML:ASF E:\Steps\Project 1\Capture day 1\Session 2\Subject.ASF
:FULLY-SPECIFIED
:DEGREES
63
root 19.221 16.3761 36.4552 -152.432 -1.38183 178.362
lowerback -31.2151 -1.28273 -6.44159
upperback -2.65036 -0.371599 -0.597933
thorax 13.2967 -0.924255 2.58737
lowerneck -4.8468 -2.17339 3.04891
upperneck 7.87916 -3.26858 -0.114059
head 3.33666 -1.58238 -0.714058
rclavicle -8.10048e-015 4.45278e-014
rhumerus -37.9788 -23.7902 -74.6965
rradius 24.9549
rwrist 3.31466
rhand -7.27997 -50.7726
rfingers 7.12502
rthumb 18.6015 -79.9032
lclavicle -8.10048e-015 4.45278e-014
lhumerus -31.6761 17.2968 74.0356
lradius 11.8269
lwrist -18.9444
lhand -21.9935 -9.7859
lfingers 7.12502
lthumb 4.41508 20.1481
rfemur -22.3463 6.67994 18.1087
rtibia 5.43467
rfoot -18.5889 -7.54944
rtoes -36.9211
lfemur -24.3963 -8.92899 -19.8755
ltibia 7.57157
lfoot -8.47872 1.41829
ltoes -36.0492
64
root 19.2242 16.3729 36.46 -152.263 -1.36491 178.403
lowerback -31.3315 -1.26374 -6.43449
upperback -2.67836 -0.353049 -0.599289
thorax 13.3126 -0.920182 2.58658
lowerneck -5.20415 -2.13665 3.1911
upperneck 8.22328 -3.24772 -0.196687
head 3.5227 -1.56794 -0.776864
rclavicle 9.54166e-015 -1.90833e-014
rhumerus -38.0012 -23.8641 -74.6909
rradius 25.0091
rwrist 3.36148
rhand -7.36895 -50.7661
rfingers 7.12502
rthumb 18.516 -79.9048
lclavicle 9.54166e-015 -1.90833e-014
lhumerus -31.6661 17.246 74.011
lradius 11.8187
lwrist -19.0219
lhand -21.9303 -10.0289
lfingers 7.12502
lthumb 4.47603 19.9038
rfemur -22.5592 6.52213 18.2015
rtibia 5.44887
rfoot -18.6054 -7.32441
rtoes -36.6111
lfemur -24.6319 -8.77145 -19.8151
ltibia 7.64002
lfoot -8.42989 1.27544
ltoes -36.2272
65
root 19.2219 16.3785 36.4568 -152.482 -1.44385 178.431
lowerback -31.1526 -1.26634 -6.33617
upperback -2.63374 -0.384606 -0.580828
thorax 13.292 -0.921472 2.54599
lowerneck -5.15943 -2.14089 3.19678
upperneck 8.18752 -3.25222 -0.189497
head 3.50147 -1.57024 -0.774316
rclavicle -6.06293e-015 1.19271e-015
rhumerus -38.0583 -23.9117 -74.5898
rradius 25.0391
rwrist 3.42005
rhand -7.42745 -50.8814
rfingers 7.12502
rthumb 18.4597 -80.0255
lclavicle -6.06293e-015 1.19271e-015
lhumerus -31.7462 16.9541 74.1404
lradius 11.8932
lwrist -18.8288
lhand -21.9903 -10.0798
lfingers 7.12502
lthumb 4.41816 19.8541
rfemur -22.2586 6.34133 18.2683
rtibia 5.36752
rfoot -18.6237 -7.24046
rtoes -36.4342
lfemur -24.3743 -9.00007 -19.7549
ltibia 7.59791
lfoot -8.41507 1.47976
ltoes -36.6949
66
root 19.2299 16.3755 36.4641 -152.296 -1.42014 178.437
lowerback -31.2632 -1.29656 -6.41925
upperback -2.69636 -0.412886 -0.542967
thorax 13.2689 -0.945024 2.61721
lowerneck -4.84033 -2.18379 3.11226
upperneck 7.88401 -3.29323 -0.0682653
head 3.33653 -1.59166 -0.711153
rclavicle 1.42628e-014 -3.45885e-014
rhumerus -38.0836 -23.7976 -74.5899
rradius 25.1299
rwrist 3.34248
rhand -7.48364 -50.8418
rfingers 7.12502
rthumb 18.4056 -79.991
lclavicle 1.42628e-014 -3.45885e-014
lhumerus -31.8272 16.7134 74.262
lradius 12.0248
lwrist -18.6222
lhand -22.0698 -9.77814
lfingers 7.12502
lthumb 4.3414 20.1574
rfemur -22.5194 6.4058 18.3193
rtibia 5.44943
rfoot -18.5661 -7.22276
rtoes -36.2682
lfemur -24.6618 -8.59318 -19.7932
ltibia 7.73629
lfoot -8.46975 1.13902
ltoes -36.9798
67
root 19.2326 16.376 36.4637 -152.329 -1.41364 178.476
lowerback -31.2445 -1.29334 -6.40093
upperback -2.67733 -0.412577 -0.525244
thorax 13.2834 -0.942752 2.62742
lowerneck -4.81391 -2.20802 3.103
upperneck 7.90897 -3.32849 -0.0445166
head 3.33999 -1.60907 -0.703143
rclavicle -2.38542e-015 9.54166e-015
rhumerus -38.0549 -23.6441 -74.6593
rradius 25.2175
rwrist 3.26128
rhand -7.62932 -50.6876
rfingers 7.12502
rthumb 18.2655 -79.85
lclavicle -2.38542e-015 9.54166e-015
lhumerus -31.8437 16.5675 74.3463
lradius 12.1148
lwrist -18.455
lhand -22.1487 -9.43889
lfingers 7.12502
lthumb 4.26513 20.4982
rfemur -22.5624 6.45689 18.372
rtibia 5.63646
rfoot -18.6407 -7.14425
rtoes -35.6892
lfemur -24.5993 -8.64683 -19.7296
ltibia 7.69878
lfoot -8.53197 1.22914
ltoes -37.0354
68
root 19.2349 16.3756 36.4641 -152.329 -1.41771 178.487
lowerback -31.2405 -1.28886 -6.39092
upperback -2.68293 -0.410982 -0.530906
thorax 13.2751 -0.941469 2.61657
lowerneck -4.90892 -2.27146 3.21023
upperneck 8.29171 -3.4285 -0.227825
head 3.48492 -1.66254 -0.793699
rclavicle -1.98785e-016 4.77083e-015
rhumerus -38.0342 -23.6588 -74.6478
rradius 25.2065
rwrist 3.3172
rhand -7.73001 -50.6006
rfingers 7.12502
rthumb 18.1686 -79.772
lclavicle -1.98785e-016 4.77083e-015
lhumerus -31.8103 16.145 74.5528
lradius 12.2022
lwrist -17.9197
lhand -22.3128 -9.5161
lfingers 7.12502
lthumb 4.10667 20.4241
rfemur -22.4685 6.90301 18.2838
rtibia 5.43343
rfoot -18.5342 -7.57431
rtoes -35.6165
lfemur -24.608 -8.56754 -19.7267
ltibia 7.71506
lfoot -8.54946 1.13454
ltoes -37.327
69
root 19.2298 16.3794 36.4578 -152.563 -1.44231 178.452
lowerback -31.094 -1.26808 -6.32767
upperback -2.61704 -0.388601 -0.566942
thorax 13.2868 -0.920462 2.55641
lowerneck -4.65726 -2.55792 3.47602
upperneck 8.42825 -3.77545 -0.893447
head 3.46007 -1.85504 -1.06993
rclavicle 7.95139e-016 1.15295e-014
rhumerus -38.0535 -23.6475 -74.645
rradius 25.2607
rwrist 3.28688
rhand -7.7933 -50.6257
rfingers 7.12502
rthumb 18.1077 -79.8028
lclavicle 7.95139e-016 1.15295e-014
lhumerus -31.7308 15.6827 74.8093
lradius 12.299
lwrist -17.3244
lhand -22.4824 -9.65922
lfingers 7.12502
lthumb 3.94295 20.284
rfemur -22.236 6.62173 18.2677
rtibia 5.55304
rfoot -18.6985 -7.48325
rtoes -36.1562
lfemur -24.288 -8.87941 -19.755
ltibia 7.63131
lfoot -8.59535 1.32996
ltoes -37.4685
70
root 19.2355 16.3743 36.4659 -152.323 -1.44173 178.434
lowerback -31.2416 -1.28578 -6.43425
upperback -2.67665 -0.38944 -0.537642
thorax 13.2803 -0.933727 2.64109
lowerneck -4.86401 -2.40027 3.25789
upperneck 8.52589 -3.59987 -0.420035
head 3.55038 -1.75492 -0.875378
rclavicle 3.13086e-015 1.59028e-015
rhumerus -38.0379 -23.6301 -74.6483
rradius 25.3662
rwrist 3.19579
rhand -7.70097 -50.7227
rfingers 7.12502
rthumb 18.1965 -79.8915
lclavicle 3.13086e-015 1.59028e-015
lhumerus -31.6262 15.4589 75.0141
lradius 12.3577
lwrist -17.0569
lhand -22.6382 -9.71845
lfingers 7.12502
lthumb 3.79245 20.2275
rfemur -22.5979 6.29929 18.3717
rtibia 5.69745
rfoot -18.7961 -7.23418
rtoes -36.6114
lfemur -24.643 -8.55487 -19.7899
ltibia 7.77106
lfoot -8.6256 0.997543
ltoes -37.0079
71
root 19.2338 16.3745 36.4644 -152.37 -1.49123 178.453
lowerback -31.2122 -1.26993 -6.37112
upperback -2.65987 -0.386536 -0.5343
thorax 13.2878 -0.927122 2.61298
lowerneck -4.88094 -2.36459 3.12913
upperneck 8.5148 -3.56579 -0.168479
head 3.55708 -1.73235 -0.769042
rclavicle -3.8266e-015 -3.81667e-014
rhumerus -37.9821 -23.6614 -74.6474
rradius 25.3866
rwrist 3.20673
rhand -7.75605 -50.5581
rfingers 7.12502
rthumb 18.1436 -79.7319
lclavicle -3.8266e-015 -3.81667e-014
lhumerus -31.5729 15.3919 75.1013
lradius 12.4372
lwrist -16.9172
lhand -22.7861 -9.78674
lfingers 7.12502
lthumb 3.64968 20.1618
rfemur -22.5032 5.94947 18.4392
rtibia 5.54896
rfoot -18.742 -6.91369
rtoes -36.6116
lfemur -24.5838 -8.74078 -19.727
ltibia 7.74575
lfoot -8.62953 1.21055
ltoes -37.0631
